Coordinates
version=1
nRows=15
nColumns=23
inDegrees=yes

Units are S.I. units (second, meters, Newtons, ...)
If the header above contains a line with 'inDegrees', this indicates whether rotational values are in degrees (yes) or radians (no).

endheader
time	pelvis_tilt	pelvis_list	pelvis_rotation	pelvis_tx	pelvis_ty	pelvis_tz	hip_flexion_r	hip_adduction_r	hip_rotation_r	knee_angle_r	knee_angle_r_beta	ankle_angle_r	subtalar_angle_r	mtp_angle_r	hip_flexion_l	hip_adduction_l	hip_rotation_l	knee_angle_l	knee_angle_l_beta	ankle_angle_l	subtalar_angle_l	mtp_angle_l
      7.50000000	     -4.62580548	      8.02590158	     11.36470755	      2.32014906	      0.99042031	      1.03608983	    -13.63256438	     -8.79156252	    -15.42173845	     55.52512170	      0.96909619	    -11.36742356	     -7.30915406	      0.00000000	     20.84563310	     13.22152225	     -7.60209343	      9.88460776	      0.17251895	      5.68264992	      7.21335243	      0.00000000
      7.50666667	     -4.30922897	      8.44744147	     11.62470651	      2.31899804	      0.98720971	      1.03516258	    -12.76002738	     -9.58695118	    -15.55627782	     59.65967131	      1.04125770	    -11.48885357	     -9.78635875	      0.00000000	     20.04441511	     13.90130676	     -7.65001020	      9.64157436	      0.16827722	      5.18697543	      7.42861041	      0.00000000
      7.51333333	     -4.19192972	      8.79569627	     11.86589026	      2.31750613	      0.98339018	      1.03439369	    -11.50619642	    -10.35310810	    -15.52406795	     63.86079611	      1.11458116	    -11.51481297	    -12.35459332	      0.00000000	     19.71627828	     14.43923837	     -7.87347014	     10.18143556	      0.17769957	      4.68647273	      7.60747134	      0.00000000
      7.52000000	     -3.77943007	      9.31403994	     12.21573578	      2.31606860	      0.97960441	      1.03352970	    -10.65537631	    -11.26543870	    -15.71368229	     67.88466979	      1.18481100	    -11.52235722	    -14.62889812	      0.00000000	     19.07145577	     15.09910957	     -7.80454236	     11.16385335	      0.19484600	      4.18266846	      7.41513590	      0.00000000
      7.52666667	     -3.92539293	      9.63512002	     12.43780431	      2.31401051	      0.97481524	      1.03304029	     -8.87457145	    -12.14082578	    -15.51124740	     72.09324334	      1.25826446	    -11.42775437	    -16.75948117	      0.00000000	     19.38937187	     15.50618913	     -8.04860915	     12.97079760	      0.22638312	      3.75529252	      7.08778483	      0.00000000
      7.53333333	     -3.75614622	     10.11680421	     12.69474365	      2.31200179	      0.97019149	      1.03260621	     -7.48101153	    -13.14310514	    -15.38699506	     76.08683548	      1.32796580	    -11.33892652	    -18.51535005	      0.00000000	     19.34058142	     16.02568435	     -7.92080714	     15.09703118	      0.26349290	      3.52513145	      6.20601490	      0.00000000
      7.54000000	     -3.94582144	     10.35525200	     12.88613718	      2.30954115	      0.96491519	      1.03247549	     -5.41641871	    -13.97606130	    -14.94856955	     80.10868830	      1.39816037	    -10.99948273	    -19.75808589	      0.00000000	     19.92483586	     16.28216224	     -7.81232726	     17.80744440	      0.31079854	      3.53785271	      4.98092291	      0.00000000
      7.54666667	     -3.98585728	     10.60810374	     13.04907566	      2.30695823	      0.95972066	      1.03248171	     -3.43001647	    -14.81308925	    -14.43125507	     83.95189123	      1.46523692	    -10.64325841	    -20.53453653	      0.00000000	     20.36690650	     16.52228376	     -7.48283546	     20.77756893	      0.36263699	      4.05869423	      3.48460060	      0.00000000
      7.55333333	     -4.01402503	     10.80534817	     13.09130660	      2.30418658	      0.95453408	      1.03274120	     -1.28020754	    -15.60128770	    -13.68063260	     87.64525443	      1.52969826	    -10.18658650	    -20.81023389	      0.00000000	     20.81764542	     16.67858238	     -7.05182323	     23.90392441	      0.41720219	      5.05988897	      1.85390709	      0.00000000
      7.56000000	     -3.98769636	     10.95320777	     13.06884251	      2.30129272	      0.94951855	      1.03314326	      0.95485339	    -16.32228762	    -12.76714699	     91.13581899	      1.59062011	     -9.66317798	    -20.60089922	      0.00000000	     21.14855093	     16.77855545	     -6.47435255	     27.02083847	      0.47160260	      6.50860993	      0.26349990	      0.00000000
      7.56666667	     -3.86875907	     11.04530224	     12.98893857	      2.29836436	      0.94489231	      1.03366639	      3.21443628	    -16.93840340	    -11.72666788	     94.35886510	      1.64687287	     -9.06205986	    -19.92811104	      0.00000000	     21.25446026	     16.79984827	     -5.80815085	     29.98757509	      0.52338192	      8.30248968	     -1.13368601	      0.00000000
      7.57333333	     -3.62877786	     11.06466832	     12.84342326	      2.29546650	      0.94078357	      1.03427770	      5.45834054	    -17.42372445	    -10.58844999	     97.27894073	      1.69783781	     -8.37649865	    -18.82204038	      0.00000000	     21.05917871	     16.70864180	     -5.08604341	     32.69269991	      0.57059525	     10.31826560	     -2.24892584	      0.00000000
      7.58000000	     -3.30187622	     11.06712971	     12.61450799	      2.29265181	      0.93728552	      1.03493969	      7.70599935	    -17.83532343	     -9.33884504	     99.86800287	      1.74302547	     -7.63227084	    -17.41891637	      0.00000000	     20.53495548	     16.54782003	     -4.40045287	     35.00338849	      0.61092438	     12.43799328	     -3.03050619	      0.00000000
      7.58666667	     -2.51235882	     10.93807929	     12.32440812	      2.29016991	      0.93505464	      1.03563305	      9.45174328	    -17.91511462	     -8.16398394	    101.94099658	      1.77920603	     -6.96628113	    -16.01164236	      0.00000000	     19.23277168	     16.15458631	     -3.58436877	     36.84649340	      0.64309263	     14.57275162	     -3.60926300	      0.00000000
      7.59333333	     -2.32615067	     10.86234367	     11.97619237	      2.28767521	      0.93245230	      1.03625811	     12.01055985	    -18.21755310	     -6.78658442	    103.87647394	      1.81298649	     -6.01363903	    -14.11806770	      0.00000000	     18.41188787	     15.77275584	     -3.31869357	     38.37369833	      0.66974738	     16.58010795	     -3.54260710	      0.00000000
